<svg xmlns="http://www.w3.org/2000/svg" style="color: currentColor; font-size: 1em;width: 1em;height: 1em;" viewBox="0 0 181.08 197.8"><defs><style>.a,.b{fill:#fff;}.a{stroke:#040000;}.a,.c{stroke-miterlimit:10;}.c{fill:none;stroke:#231815;}</style></defs><path class="a" d="M72.26,176.75c44.17,9.56,88.57-18.78,99.7-64.09a87.43,87.43,0,0,0-1.85-48.45l0-.09a3.14,3.14,0,0,1,2-3.93,3,3,0,0,1,3.82,2h0A94.41,94.41,0,0,1,164.67,144c-28.22,42.25-84.29,53.49-125.23,25.11s-51.25-85.62-23-127.86,84.29-53.49,125.23-25.12h0a3.14,3.14,0,0,1,.77,4.31,3,3,0,0,1-4.22.85A81.43,81.43,0,0,0,111.07,9.11c-44.9-11-90.62,17.5-101.93,63.58-11,45,14.78,90.41,57.86,102.74Z"/><rect class="b" x="19.61" y="80.97" width="141.85" height="4.82" rx="2"/><rect class="c" x="19.61" y="80.97" width="141.85" height="4.82" rx="2"/><path class="b" d="M91.31,197.17c-.48.07-.94.13-1,.13h-.06a3,3,0,0,1-1.65-1.09,17.2,17.2,0,0,1-2-3.42L43.79,89.31l-1.53-3.7s-3.43-8.21-7.12-17.23C27.62,50,27.74,49.8,27.89,49.5a5.44,5.44,0,0,1,2.3-2.28A3.68,3.68,0,0,1,33.07,47a2.45,2.45,0,0,1,1.32.87,23.71,23.71,0,0,1,1.79,3.56L48.66,84.07c.39,1,1.05,2.7,1.48,3.72L87,176.62c.42,1,.62,1.91.45,2h0c.17-.08.66.69,1.08,1.71l.79,1.9c.43,1,1.12,1,1.54,0l.81-1.91c.42-1,.86-1.8,1-1.75h0a4.63,4.63,0,0,1,.56-1.94l37.3-88.84c.43-1,.87-1.81,1-1.76h0a4.53,4.53,0,0,1,.59-1.93L146.3,51.42c.44-1,1.25-2.61,1.8-3.57a2.73,2.73,0,0,1,1.25-.91,3,3,0,0,1,2.41-.2,2.59,2.59,0,0,1,1.43,1.78,3.28,3.28,0,0,1,.16,2c-.36,1-1,2.72-1.43,3.74l-58,138.47C93.46,193.77,91.8,197.09,91.31,197.17Z"/><path class="c" d="M91.31,197.17c-.48.07-.94.13-1,.13h-.06a3,3,0,0,1-1.65-1.09,17.2,17.2,0,0,1-2-3.42L43.79,89.31l-1.53-3.7s-3.43-8.21-7.12-17.23C27.62,50,27.74,49.8,27.89,49.5a5.44,5.44,0,0,1,2.3-2.28A3.68,3.68,0,0,1,33.07,47a2.45,2.45,0,0,1,1.32.87,23.71,23.71,0,0,1,1.79,3.56L48.66,84.07c.39,1,1.05,2.7,1.48,3.72L87,176.62c.42,1,.62,1.91.45,2h0c.17-.08.66.69,1.08,1.71l.79,1.9c.43,1,1.12,1,1.54,0l.81-1.91c.42-1,.86-1.8,1-1.75h0a4.63,4.63,0,0,1,.56-1.94l37.3-88.84c.43-1,.87-1.81,1-1.76h0a4.53,4.53,0,0,1,.59-1.93L146.3,51.42c.44-1,1.25-2.61,1.8-3.57a2.73,2.73,0,0,1,1.25-.91,3,3,0,0,1,2.41-.2,2.59,2.59,0,0,1,1.43,1.78,3.28,3.28,0,0,1,.16,2c-.36,1-1,2.72-1.43,3.74l-58,138.47C93.46,193.77,91.8,197.09,91.31,197.17Z"/><path class="a" d="M87.71,162.65v-70h5.16v70Z"/></svg>