<svg xmlns="http://www.w3.org/2000/svg" viewBox="0 0 497.02 159.99"><defs><style>.a{fill:#fff;stroke:#040000;stroke-miterlimit:10;}</style></defs><title>toa</title><path class="a" d="M142.35,10.44H.5V2.23H142.35"/><path class="a" d="M75.67,28.68V156H67.18V28.68Z"/><path class="a" d="M260.64,157a61.65,61.65,0,0,1-23.42-4.57,72.39,72.39,0,0,1-20.42-12.66l-1.41-1.23L200,155.47a2.9,2.9,0,0,1-1.76.75h-.14a2.13,2.13,0,0,1-1.53-.73,3.16,3.16,0,0,1-.79-1.82,2.54,2.54,0,0,1,.74-1.91l15.52-17-1.23-1.55a80.48,80.48,0,0,1-13.45-25,95.28,95.28,0,0,1-4.49-29.74,81.52,81.52,0,0,1,5.3-29.28,79,79,0,0,1,14.48-24.28A70.38,70.38,0,0,1,234.12,8.36a58.86,58.86,0,0,1,26.53-6.13,57.61,57.61,0,0,1,25.91,6.24A65.11,65.11,0,0,1,308.22,26.1L309.71,28,329.63,3.62a3.65,3.65,0,0,1,2.62-1.05h.21A3.15,3.15,0,0,1,335,3.66a3.89,3.89,0,0,1,1,3,4.37,4.37,0,0,1-1,2.9L313.12,33.43l1.1,1.54A60,60,0,0,1,323.1,55a95.27,95.27,0,0,1,3.07,23.44,89.52,89.52,0,0,1-5.21,30.7,81.79,81.79,0,0,1-14.18,25A68.22,68.22,0,0,1,285.9,150.9,54.57,54.57,0,0,1,260.64,157Zm-40.21-24.3,1.83,1.53a86.38,86.38,0,0,0,17.61,11.43,47.09,47.09,0,0,0,20.75,4.67,47.73,47.73,0,0,0,22.6-5.74,63.13,63.13,0,0,0,18.86-15.46A75.91,75.91,0,0,0,315,106.38a81.11,81.11,0,0,0,4.77-28,72.93,72.93,0,0,0-2.93-20.47,112.16,112.16,0,0,0-7.41-18.81l-1.3-2.56ZM260.66,8.9a55.08,55.08,0,0,0-24,5.36A60.44,60.44,0,0,0,217.25,29a72.72,72.72,0,0,0-13.1,22.08,76.24,76.24,0,0,0-4.88,27.43,86.21,86.21,0,0,0,4.21,27A84,84,0,0,0,214,127.28l1.4,2,89-97.8-1.19-1.55A53,53,0,0,0,284,14,53.77,53.77,0,0,0,260.66,8.9Z"/><path class="a" d="M446.25,148.85l-3.07,10.2,53.14.43L442.23.82l-5.89-.3L386.18,159.05s7.38-1.84,12.52-2.7c-2.27-16.62,32.61-130,40.91-129.18s43.06,120,42.49,122.27C481.12,153.46,446.61,151.14,446.25,148.85Z"/></svg>